<svg width="32" height="32" viewBox="0 0 32 32" fill="none" xmlns="http://www.w3.org/2000/svg">
<path d="M16.3333 3C11.1733 3 7 7.17333 7 12.3333C7 19.3333 16.3333 29.6667 16.3333 29.6667C16.3333 29.6667 25.6667 19.3333 25.6667 12.3333C25.6667 7.17333 21.4933 3 16.3333 3ZM16.3333 15.6667C15.4493 15.6667 14.6014 15.3155 13.9763 14.6904C13.3512 14.0652 13 13.2174 13 12.3333C13 11.4493 13.3512 10.6014 13.9763 9.97631C14.6014 9.35119 15.4493 9 16.3333 9C17.2174 9 18.0652 9.35119 18.6904 9.97631C19.3155 10.6014 19.6667 11.4493 19.6667 12.3333C19.6667 13.2174 19.3155 14.0652 18.6904 14.6904C18.0652 15.3155 17.2174 15.6667 16.3333 15.6667Z" fill="#CB416B"/>
</svg>
