<svg width="35" height="35" viewBox="0 0 35 35" fill="none" xmlns="http://www.w3.org/2000/svg">
<path d="M27.7812 7.1604C26.4443 5.80988 24.8517 4.73908 23.0966 4.01048C21.3414 3.28187 19.4587 2.91003 17.5583 2.91665C9.59583 2.91665 3.10625 9.40623 3.10625 17.3687C3.10625 19.9208 3.77708 22.4 5.03125 24.5875L2.98958 32.0833L10.6458 30.0708C12.7604 31.2229 15.1375 31.8354 17.5583 31.8354C25.5208 31.8354 32.0104 25.3458 32.0104 17.3833C32.0104 13.5187 30.5083 9.88749 27.7812 7.1604ZM17.5583 29.3854C15.4 29.3854 13.2854 28.8021 11.4333 27.7083L10.9958 27.4458L6.44583 28.6417L7.65625 24.2083L7.36458 23.7562C6.16546 21.8414 5.52874 19.628 5.52708 17.3687C5.52708 10.7479 10.9229 5.35207 17.5437 5.35207C20.7521 5.35207 23.7708 6.60624 26.0312 8.88124C27.1505 9.99535 28.0375 11.3205 28.6408 12.78C29.2441 14.2394 29.5517 15.8041 29.5458 17.3833C29.575 24.0042 24.1792 29.3854 17.5583 29.3854ZM24.15 20.4021C23.7854 20.2271 22.0062 19.3521 21.6854 19.2208C21.35 19.1042 21.1167 19.0458 20.8687 19.3958C20.6208 19.7604 19.9354 20.5771 19.7312 20.8104C19.5271 21.0583 19.3083 21.0875 18.9437 20.8979C18.5792 20.7229 17.4125 20.3292 16.0417 19.1042C14.9625 18.1417 14.2479 16.9604 14.0292 16.5958C13.825 16.2312 14 16.0417 14.1896 15.8521C14.35 15.6917 14.5542 15.4292 14.7292 15.225C14.9042 15.0208 14.9771 14.8604 15.0937 14.6271C15.2104 14.3792 15.1521 14.175 15.0646 14C14.9771 13.825 14.2479 12.0458 13.9562 11.3167C13.6646 10.6167 13.3583 10.7042 13.1396 10.6896H12.4396C12.1917 10.6896 11.8125 10.7771 11.4771 11.1417C11.1562 11.5062 10.2229 12.3812 10.2229 14.1604C10.2229 15.9396 11.5208 17.6604 11.6958 17.8937C11.8708 18.1417 14.2479 21.7875 17.8646 23.3479C18.725 23.7271 19.3958 23.9458 19.9208 24.1062C20.7812 24.3833 21.5687 24.3396 22.1958 24.2521C22.8958 24.15 24.3396 23.3771 24.6312 22.5312C24.9375 21.6854 24.9375 20.9708 24.8354 20.8104C24.7333 20.65 24.5146 20.5771 24.15 20.4021Z" fill="#CB416B"/>
</svg>
