<svg width="35" height="35" viewBox="0 0 35 35" fill="none" xmlns="http://www.w3.org/2000/svg">
<path d="M28.1771 8.11152C27.9556 7.99706 27.74 7.87157 27.5311 7.73555C26.9235 7.33391 26.3665 6.86065 25.872 6.32598C24.6347 4.91025 24.1726 3.47402 24.0023 2.46846H24.0092C23.867 1.63379 23.9258 1.09375 23.9347 1.09375H18.2991V22.8854C18.2991 23.1779 18.2991 23.4671 18.2868 23.7528C18.2868 23.7884 18.2834 23.8212 18.2814 23.8595C18.2814 23.8752 18.2814 23.8916 18.2779 23.908V23.9203C18.2185 24.7022 17.9679 25.4575 17.5481 26.1198C17.1282 26.782 16.5521 27.331 15.8703 27.7184C15.1598 28.1226 14.3561 28.3347 13.5386 28.3336C10.9129 28.3336 8.78487 26.1926 8.78487 23.5484C8.78487 20.9043 10.9129 18.7633 13.5386 18.7633C14.0356 18.7628 14.5296 18.841 15.0022 18.995L15.009 13.2569C13.5744 13.0716 12.1169 13.1856 10.7286 13.5918C9.34023 13.9979 8.05113 14.6874 6.94258 15.6167C5.97124 16.4607 5.15463 17.4677 4.5295 18.5924C4.2916 19.0025 3.39405 20.6507 3.28535 23.3256C3.217 24.8438 3.67295 26.4168 3.89034 27.0669V27.0806C4.02705 27.4634 4.55684 28.7697 5.42022 29.871C6.11642 30.7544 6.93895 31.5304 7.86133 32.174V32.1604L7.875 32.174C10.6032 34.0279 13.6281 33.9062 13.6281 33.9062C14.1518 33.8851 15.9059 33.9063 17.8979 32.9622C20.1072 31.9156 21.365 30.3563 21.365 30.3563C22.1686 29.4247 22.8076 28.3629 23.2545 27.2166C23.7645 25.8761 23.9347 24.2683 23.9347 23.6257V12.0647C24.003 12.1058 24.9136 12.708 24.9136 12.708C24.9136 12.708 26.2254 13.5488 28.2721 14.0964C29.7404 14.486 31.7188 14.5681 31.7188 14.5681V8.97354C31.0256 9.04873 29.6181 8.82998 28.1771 8.11152Z" fill="#CB416B"/>
</svg>
